<?xml version="1.0" encoding="UTF-8" standalone="no"?>
<!DOCTYPE svg PUBLIC "-//W3C//DTD SVG 1.1//EN" "http://www.w3.org/Graphics/SVG/1.1/DTD/svg11.dtd">
<svg width="100%" height="100%" viewBox="0 0 800 800" version="1.1" xmlns="http://www.w3.org/2000/svg" xmlns:xlink="http://www.w3.org/1999/xlink" xml:space="preserve" xmlns:serif="http://www.serif.com/" style="fill-rule:evenodd;clip-rule:evenodd;stroke-linecap:round;stroke-linejoin:round;stroke-miterlimit:1.5;">
    <path d="M666.998,760.912L521.655,63.565C512.501,19.656 475.792,0 443.473,0C411.154,0 374.442,19.656 365.29,63.565L302.367,365.461L269.506,321.995L285.022,310.296L243.237,241.668L221.363,258.158L144.352,156.016L133,164.573L210.015,266.718L188.142,283.21L242.624,342.264L258.158,330.553L298.517,383.937L219.945,760.912L256.026,760.912L256.026,800L307.551,800L307.551,760.912L579.394,760.912L579.394,800L630.919,800L630.919,760.912L666.998,760.912ZM209.235,285.108L239.262,262.47L266.19,306.697L244.345,323.169L209.235,285.108ZM599.864,508.471L585.836,508.471L492.923,62.609L506.828,62.609C507.157,63.867 507.464,65.15 507.738,66.466L599.864,508.471ZM425.069,402.009L444.258,402.009L444.258,387.795L425.069,387.795L425.069,363.935L444.258,363.935L444.258,349.721L425.069,349.721L425.069,325.861L444.258,325.861L444.258,311.647L425.069,311.647L425.069,287.787L444.258,287.787L444.258,273.573L425.069,273.573L425.069,249.715L444.258,249.715L444.258,235.501L425.069,235.501L425.069,211.641L444.258,211.641L444.258,197.427L425.069,197.427L425.069,173.569L444.258,173.569L444.258,159.355L425.069,159.355L425.069,135.497L444.258,135.497L444.258,121.283L425.069,121.283L425.069,99.962L462.381,99.962L462.381,426.883L425.069,426.883L425.069,402.009ZM425.069,441.097L462.381,441.097L462.381,508.471L425.069,508.471L425.069,441.097ZM410.855,85.748L410.855,508.471L410.482,508.471L336.123,410.112L408.552,62.611L478.403,62.611L571.315,508.471L476.595,508.471L476.595,85.748L410.855,85.748ZM392.665,508.471L315.623,508.471L332.273,428.587L392.665,508.471ZM443.473,14.214C463.768,14.214 488.796,23.528 501.473,48.395L385.474,48.395C398.148,23.528 423.175,14.214 443.473,14.214ZM379.206,66.466C379.479,65.15 379.787,63.869 380.116,62.609L394.031,62.609L324.741,395.056L313.75,380.517L379.206,66.466ZM320.889,413.531L301.102,508.471L287.08,508.471L309.898,398.992L320.889,413.531ZM284.118,522.685L602.825,522.685L649.515,746.698L237.429,746.698L284.118,522.685ZM293.337,785.786L270.24,785.786L270.24,760.912L293.337,760.912L293.337,785.786ZM616.705,785.786L593.608,785.786L593.608,760.912L616.705,760.912L616.705,785.786Z" style="fill:white;fill-rule:nonzero;"/>
    <g transform="matrix(0.995376,-0.00471087,0.013958,0.995289,-6.27046,3.7687)">
        <path d="M128.941,782.762L689.974,14.753" style="fill:none;stroke:white;stroke-width:30px;"/>
    </g>
</svg>
